<?xml version="1.0" encoding="utf-8"?>
<!-- Generator: Adobe Illustrator 25.2.3, SVG Export Plug-In . SVG Version: 6.00 Build 0)  -->
<svg version="1.1" id="Capa_1" xmlns="http://www.w3.org/2000/svg" xmlns:xlink="http://www.w3.org/1999/xlink" x="0px" y="0px"
	 viewBox="0 0 125.3 108.96" style="enable-background:new 0 0 125.3 108.96;" xml:space="preserve">
<style type="text/css">
	.st0{fill:#333333;}
	.st1{fill:#3F72CE;}
</style>
<g>
	<path class="st0" d="M112.77,84.66l0.13-0.52h7.5c2.07,0,3.62-1.68,3.75-3.62V53.76v-0.13V53.5v-0.13c0-0.26-0.13-0.52-0.13-0.65
		V52.6v-0.13c-0.13-0.26-0.26-0.52-0.39-0.78l-13.32-19.14c-0.65-1.03-1.81-1.55-2.97-1.55H84.33V18.46c0-2.07-1.68-3.62-3.62-3.62
		h-0.13H24.02c-1.81,0.13-3.36,1.55-3.49,3.49c-0.13,2.07,1.42,3.75,3.49,3.88H76.7v54.57H60.36l-0.13-0.52
		c-1.29-4.27-4.65-7.63-8.92-8.92c-7.24-2.2-14.87,1.81-17.07,8.92l-0.13,0.52H27.9v-6.81c0-0.13,0-0.26,0-0.39
		c-0.13-2.07-1.81-3.62-3.88-3.49c-2.07,0.13-3.62,1.81-3.49,3.88v10.56c0,2.07,1.68,3.62,3.62,3.62h9.96l0.13,0.52
		c1.29,4.14,4.65,7.5,8.79,8.79c7.24,2.33,14.87-1.68,17.2-8.79l0.13-0.52h26.29l0.13,0.52c1.29,4.14,4.65,7.5,8.79,8.79
		C102.69,95.78,110.44,91.77,112.77,84.66z M51.05,85.31c-1.03,0.91-2.46,1.42-3.88,1.42h-0.13c-1.42,0-2.84-0.52-3.88-1.42
		c-0.39-0.26-0.78-0.65-1.03-1.03c-2.2-2.72-1.68-6.72,1.03-8.92c2.72-2.2,6.72-1.68,8.92,1.03C54.28,79.1,53.76,83.11,51.05,85.31z
		 M84.07,38.37h21.08l0.13,0.26l7.24,10.47l0.78,1.03H84.07l0,0V38.37z M86.78,76.39l-0.13,0.52H84.2l0,0V57.64h32.58v19.4h-3.75
		l-0.13-0.52c-1.29-4.27-4.65-7.63-9.05-9.05C96.61,65.14,88.98,69.15,86.78,76.39z M99.84,86.73c-1.42,0-2.84-0.52-3.88-1.42
		c-1.55-1.29-2.46-3.1-2.33-5.04c0.13-3.49,2.97-6.34,6.47-6.21c3.49,0.13,6.34,2.97,6.21,6.47
		C106.18,84.02,103.33,86.73,99.84,86.73z"/>
	<path class="st0" d="M4.84,38.33h49.6c2.04,0,3.69-1.65,3.69-3.69v0c0-2.04-1.65-3.69-3.69-3.69H4.84c-2.04,0-3.69,1.65-3.69,3.69
		v0C1.15,36.68,2.8,38.33,4.84,38.33z"/>
	<path class="st0" d="M22.18,54.17H38.6c2.04,0,3.69-1.65,3.69-3.69v0c0-2.04-1.65-3.69-3.69-3.69H22.18
		c-2.04,0-3.69,1.65-3.69,3.69v0C18.5,52.52,20.15,54.17,22.18,54.17z"/>
	<path class="st0" d="M10.45,54.14L10.45,54.14c2.02,0,3.66-1.64,3.66-3.66v0c0-2.02-1.64-3.66-3.66-3.66h0
		c-2.02,0-3.66,1.64-3.66,3.66v0C6.79,52.5,8.43,54.14,10.45,54.14z"/>
</g>
</svg>
